<svg xmlns="http://www.w3.org/2000/svg" xmlns:xlink="http://www.w3.org/1999/xlink" width="500" zoomAndPan="magnify" viewBox="0 0 375 374.999991" height="500" preserveAspectRatio="xMidYMid meet" version="1.0"><defs><g/><clipPath id="1c653ac2ef"><path d="M 37.5 129.449219 L 187.5 129.449219 L 187.5 262.027344 L 37.5 262.027344 Z M 37.5 129.449219 " clip-rule="nonzero"/></clipPath><clipPath id="9e440a5131"><rect x="0" width="144" y="0" height="13"/></clipPath></defs><g clip-path="url(#1c653ac2ef)"><path fill="#e9202a" d="M 87.703125 207.660156 C 75.773438 204.824219 71.246094 192.4375 71.246094 192.4375 C 71.246094 192.4375 113.101562 203.480469 125.46875 207.585938 C 141.890625 213.035156 140.554688 226.441406 140.554688 226.441406 C 139.277344 212.917969 100.933594 210.804688 87.703125 207.660156 Z M 169.738281 214.871094 C 158.289062 218.96875 151.515625 239.894531 127.398438 239.894531 C 127.398438 239.894531 150.585938 235.628906 155.046875 211.636719 C 157.1875 200.132812 150.511719 199.339844 151.160156 192.4375 C 151.160156 192.4375 152.058594 194.316406 156.5625 195.890625 C 163.761719 198.40625 169.808594 194.234375 177.296875 198.550781 C 182.765625 201.699219 187.523438 215.082031 187.523438 215.085938 C 187.523438 215.085938 187.421875 205.804688 185.882812 198.40625 C 185.917969 197.519531 185.9375 196.632812 185.9375 195.738281 C 185.9375 159.128906 156.21875 129.449219 119.558594 129.449219 C 100.867188 129.449219 83.988281 137.167969 71.925781 149.578125 L 37.5 136.980469 L 44.015625 144.769531 C 44.015625 144.769531 102.511719 166.285156 119.679688 173.847656 C 142.484375 183.890625 138.742188 202.925781 138.742188 202.925781 C 138.75 183.363281 84.070312 175.128906 65.535156 168.824219 C 63.546875 168.148438 61.726562 167.289062 60.066406 166.308594 C 59.214844 168.019531 58.433594 169.773438 57.730469 171.5625 C 57.789062 171.578125 107.609375 185.5625 122.507812 191.300781 C 142.3125 198.929688 139.894531 215.269531 139.894531 215.269531 C 139.113281 198.632812 92.269531 193.824219 76.25 189.203125 C 61.824219 185.042969 57.746094 171.609375 57.730469 171.5625 C 54.789062 179.054688 53.175781 187.210938 53.175781 195.738281 C 53.175781 232.347656 82.894531 262.027344 119.558594 262.027344 C 150.035156 262.027344 175.710938 241.515625 183.507812 213.5625 C 180.496094 212.894531 175.84375 212.683594 169.738281 214.871094 " fill-opacity="1" fill-rule="nonzero"/></g><g fill="#c1272d" fill-opacity="1"><g transform="translate(195.473416, 187.520788)"><g><path d="M 20.984375 -0.28125 L 21.25 -0.28125 L 21.25 0 L 12.171875 0 L 12.171875 -0.28125 L 12.4375 -0.28125 C 12.851562 -0.28125 13.160156 -0.40625 13.359375 -0.65625 C 13.554688 -0.914062 13.65625 -1.160156 13.65625 -1.390625 C 13.65625 -1.617188 13.609375 -1.847656 13.515625 -2.078125 L 12.125 -5.578125 L 5.46875 -5.578125 L 3.984375 -2.078125 C 3.890625 -1.828125 3.84375 -1.59375 3.84375 -1.375 C 3.84375 -1.15625 3.945312 -0.914062 4.15625 -0.65625 C 4.363281 -0.40625 4.675781 -0.28125 5.09375 -0.28125 L 5.328125 -0.28125 L 5.328125 0 L -0.765625 0 L -0.765625 -0.28125 L -0.515625 -0.28125 C -0.078125 -0.28125 0.359375 -0.410156 0.796875 -0.671875 C 1.234375 -0.941406 1.59375 -1.34375 1.875 -1.875 L 8.453125 -16.75 C 9.335938 -18.625 9.8125 -19.863281 9.875 -20.46875 L 10.125 -20.46875 L 18.578125 -1.9375 C 18.859375 -1.382812 19.21875 -0.96875 19.65625 -0.6875 C 20.09375 -0.414062 20.535156 -0.28125 20.984375 -0.28125 Z M 5.953125 -6.765625 L 11.640625 -6.765625 L 8.875 -13.765625 Z M 5.953125 -6.765625 "/></g></g></g><g fill="#c1272d" fill-opacity="1"><g transform="translate(215.829032, 187.520788)"><g><path d="M 9.046875 -18.65625 L 7.828125 -18.65625 C 7.785156 -18.65625 7.753906 -18.65625 7.734375 -18.65625 L 7.734375 -2.078125 C 7.753906 -1.585938 7.9375 -1.164062 8.28125 -0.8125 C 8.632812 -0.457031 9.0625 -0.28125 9.5625 -0.28125 L 9.921875 -0.28125 L 9.921875 0 L 1.28125 0 L 1.28125 -0.28125 L 1.65625 -0.28125 C 2.332031 -0.28125 2.851562 -0.578125 3.21875 -1.171875 C 3.363281 -1.429688 3.445312 -1.722656 3.46875 -2.046875 L 3.46875 -17.828125 C 3.445312 -18.316406 3.257812 -18.738281 2.90625 -19.09375 C 2.5625 -19.445312 2.144531 -19.625 1.65625 -19.625 L 1.28125 -19.625 L 1.28125 -19.90625 L 11.03125 -19.90625 C 12.875 -19.90625 14.429688 -19.507812 15.703125 -18.71875 C 16.347656 -18.3125 16.859375 -17.753906 17.234375 -17.046875 C 17.609375 -16.335938 17.796875 -15.410156 17.796875 -14.265625 C 17.796875 -13.117188 17.394531 -12.015625 16.59375 -10.953125 C 15.800781 -9.890625 14.648438 -9.28125 13.140625 -9.125 C 14.234375 -8.769531 15.195312 -7.9375 16.03125 -6.625 C 18.082031 -3.34375 19.601562 -1.390625 20.59375 -0.765625 C 21.082031 -0.460938 21.695312 -0.300781 22.4375 -0.28125 L 22.4375 0 L 19.65625 0 C 18 0 16.625 -0.21875 15.53125 -0.65625 C 14.445312 -1.09375 13.59375 -1.859375 12.96875 -2.953125 C 12.601562 -3.578125 11.816406 -5.203125 10.609375 -7.828125 C 10.078125 -8.984375 9.429688 -9.613281 8.671875 -9.71875 L 8.671875 -10.015625 L 9.5625 -10.015625 C 10.40625 -10.015625 11.15625 -10.269531 11.8125 -10.78125 C 12.46875 -11.289062 12.910156 -12.125 13.140625 -13.28125 C 13.210938 -13.675781 13.25 -13.988281 13.25 -14.21875 C 13.25 -15.769531 12.9375 -16.890625 12.3125 -17.578125 C 11.6875 -18.273438 10.878906 -18.632812 9.890625 -18.65625 C 9.703125 -18.65625 9.421875 -18.65625 9.046875 -18.65625 Z M 9.046875 -18.65625 "/></g></g></g><g fill="#c1272d" fill-opacity="1"><g transform="translate(237.065957, 187.520788)"><g><path d="M 13.015625 0.375 C 9.359375 0.375 6.488281 -0.539062 4.40625 -2.375 C 2.320312 -4.21875 1.28125 -6.742188 1.28125 -9.953125 C 1.28125 -13.160156 2.3125 -15.6875 4.375 -17.53125 C 6.445312 -19.375 9.28125 -20.296875 12.875 -20.296875 C 15.625 -20.296875 17.988281 -19.785156 19.96875 -18.765625 L 20.015625 -13.875 L 19.796875 -13.875 C 18.828125 -17.363281 16.617188 -19.109375 13.171875 -19.109375 C 10.929688 -19.109375 9.160156 -18.296875 7.859375 -16.671875 C 6.566406 -15.054688 5.921875 -12.84375 5.921875 -10.03125 C 5.921875 -7.226562 6.539062 -5 7.78125 -3.34375 C 9.019531 -1.695312 10.703125 -0.847656 12.828125 -0.796875 C 15.023438 -0.796875 16.703125 -1.347656 17.859375 -2.453125 C 19.035156 -3.585938 19.847656 -5.535156 20.296875 -8.296875 L 20.53125 -8.296875 L 20.8125 -3.40625 C 19.28125 -0.875 16.679688 0.382812 13.015625 0.375 Z M 13.015625 0.375 "/></g></g></g><g fill="#c1272d" fill-opacity="1"><g transform="translate(259.241069, 187.520788)"><g><path d="M 15.046875 -0.28125 C 15.535156 -0.28125 15.914062 -0.40625 16.1875 -0.65625 C 16.613281 -1.09375 16.835938 -1.554688 16.859375 -2.046875 L 16.859375 -9.296875 L 7.65625 -9.296875 L 7.65625 -2.078125 C 7.65625 -1.585938 7.832031 -1.164062 8.1875 -0.8125 C 8.550781 -0.457031 8.976562 -0.28125 9.46875 -0.28125 L 9.8125 -0.28125 L 9.84375 0 L 1.1875 0 L 1.1875 -0.28125 L 1.5625 -0.28125 C 2.050781 -0.28125 2.472656 -0.457031 2.828125 -0.8125 C 3.179688 -1.164062 3.367188 -1.585938 3.390625 -2.078125 L 3.390625 -17.828125 C 3.367188 -18.316406 3.179688 -18.738281 2.828125 -19.09375 C 2.472656 -19.445312 2.050781 -19.625 1.5625 -19.625 L 1.1875 -19.625 L 1.1875 -19.90625 L 9.84375 -19.90625 L 9.8125 -19.625 L 9.46875 -19.625 C 8.976562 -19.625 8.550781 -19.445312 8.1875 -19.09375 C 7.832031 -18.738281 7.65625 -18.316406 7.65625 -17.828125 L 7.65625 -10.515625 L 16.859375 -10.515625 L 16.859375 -17.828125 C 16.835938 -18.316406 16.648438 -18.738281 16.296875 -19.09375 C 15.953125 -19.445312 15.535156 -19.625 15.046875 -19.625 L 14.671875 -19.625 L 14.671875 -19.90625 L 23.3125 -19.90625 L 23.3125 -19.625 L 22.953125 -19.625 C 22.453125 -19.625 22.019531 -19.445312 21.65625 -19.09375 C 21.300781 -18.738281 21.125 -18.316406 21.125 -17.828125 L 21.125 -2.078125 C 21.125 -1.585938 21.300781 -1.164062 21.65625 -0.8125 C 22.019531 -0.457031 22.453125 -0.28125 22.953125 -0.28125 L 23.3125 -0.28125 L 23.3125 0 L 14.671875 0 L 14.671875 -0.28125 Z M 15.046875 -0.28125 "/></g></g></g><g fill="#c1272d" fill-opacity="1"><g transform="translate(283.718973, 187.520788)"><g><path d="M 1.5625 -0.28125 C 2.050781 -0.28125 2.472656 -0.457031 2.828125 -0.8125 C 3.179688 -1.164062 3.367188 -1.585938 3.390625 -2.078125 L 3.390625 -17.921875 C 3.347656 -18.410156 3.203125 -18.769531 2.953125 -19 C 2.503906 -19.414062 2.039062 -19.625 1.5625 -19.625 L 1.1875 -19.625 L 1.1875 -19.90625 L 12.09375 -19.90625 C 13.019531 -19.90625 13.785156 -19.972656 14.390625 -20.109375 C 14.992188 -20.253906 15.363281 -20.359375 15.5 -20.421875 L 15.5 -15.4375 L 15.21875 -15.46875 L 15.21875 -15.78125 C 15.21875 -16.957031 14.78125 -17.789062 13.90625 -18.28125 C 13.488281 -18.53125 12.992188 -18.664062 12.421875 -18.6875 L 7.65625 -18.6875 L 7.65625 -10.40625 L 11.40625 -10.40625 C 12.101562 -10.425781 12.679688 -10.664062 13.140625 -11.125 C 13.597656 -11.59375 13.828125 -12.171875 13.828125 -12.859375 L 13.828125 -13.109375 L 14.109375 -13.109375 L 14.109375 -6.546875 L 13.828125 -6.546875 L 13.828125 -6.765625 C 13.828125 -7.472656 13.601562 -8.050781 13.15625 -8.5 C 12.707031 -8.957031 12.140625 -9.195312 11.453125 -9.21875 L 7.65625 -9.21875 L 7.65625 -1.21875 L 11.375 -1.21875 C 12.757812 -1.21875 13.921875 -1.613281 14.859375 -2.40625 C 15.796875 -3.207031 16.492188 -4.335938 16.953125 -5.796875 L 17.234375 -5.796875 L 15.921875 0 L 1.1875 0 L 1.1875 -0.28125 Z M 1.5625 -0.28125 "/></g></g></g><g fill="#c1272d" fill-opacity="1"><g transform="translate(301.658067, 187.520788)"><g><path d="M 9.046875 -18.65625 L 7.828125 -18.65625 C 7.785156 -18.65625 7.753906 -18.65625 7.734375 -18.65625 L 7.734375 -2.078125 C 7.753906 -1.585938 7.9375 -1.164062 8.28125 -0.8125 C 8.632812 -0.457031 9.0625 -0.28125 9.5625 -0.28125 L 9.921875 -0.28125 L 9.921875 0 L 1.28125 0 L 1.28125 -0.28125 L 1.65625 -0.28125 C 2.332031 -0.28125 2.851562 -0.578125 3.21875 -1.171875 C 3.363281 -1.429688 3.445312 -1.722656 3.46875 -2.046875 L 3.46875 -17.828125 C 3.445312 -18.316406 3.257812 -18.738281 2.90625 -19.09375 C 2.5625 -19.445312 2.144531 -19.625 1.65625 -19.625 L 1.28125 -19.625 L 1.28125 -19.90625 L 11.03125 -19.90625 C 12.875 -19.90625 14.429688 -19.507812 15.703125 -18.71875 C 16.347656 -18.3125 16.859375 -17.753906 17.234375 -17.046875 C 17.609375 -16.335938 17.796875 -15.410156 17.796875 -14.265625 C 17.796875 -13.117188 17.394531 -12.015625 16.59375 -10.953125 C 15.800781 -9.890625 14.648438 -9.28125 13.140625 -9.125 C 14.234375 -8.769531 15.195312 -7.9375 16.03125 -6.625 C 18.082031 -3.34375 19.601562 -1.390625 20.59375 -0.765625 C 21.082031 -0.460938 21.695312 -0.300781 22.4375 -0.28125 L 22.4375 0 L 19.65625 0 C 18 0 16.625 -0.21875 15.53125 -0.65625 C 14.445312 -1.09375 13.59375 -1.859375 12.96875 -2.953125 C 12.601562 -3.578125 11.816406 -5.203125 10.609375 -7.828125 C 10.078125 -8.984375 9.429688 -9.613281 8.671875 -9.71875 L 8.671875 -10.015625 L 9.5625 -10.015625 C 10.40625 -10.015625 11.15625 -10.269531 11.8125 -10.78125 C 12.46875 -11.289062 12.910156 -12.125 13.140625 -13.28125 C 13.210938 -13.675781 13.25 -13.988281 13.25 -14.21875 C 13.25 -15.769531 12.9375 -16.890625 12.3125 -17.578125 C 11.6875 -18.273438 10.878906 -18.632812 9.890625 -18.65625 C 9.703125 -18.65625 9.421875 -18.65625 9.046875 -18.65625 Z M 9.046875 -18.65625 "/></g></g></g><g fill="#c1272d" fill-opacity="1"><g transform="translate(322.894993, 187.520788)"><g><path d="M 1.421875 -2.640625 C 1.421875 -4.003906 1.710938 -5.171875 2.296875 -6.140625 L 2.5625 -6.140625 C 2.539062 -5.992188 2.53125 -5.84375 2.53125 -5.6875 C 2.53125 -4.375 3 -3.226562 3.9375 -2.25 C 4.875 -1.28125 6.160156 -0.796875 7.796875 -0.796875 C 9.066406 -0.796875 10.054688 -1.097656 10.765625 -1.703125 C 11.472656 -2.304688 11.828125 -3.078125 11.828125 -4.015625 C 11.828125 -4.554688 11.648438 -5.046875 11.296875 -5.484375 C 10.953125 -5.921875 10.375 -6.40625 9.5625 -6.9375 L 4.609375 -10.203125 C 2.765625 -11.441406 1.84375 -12.960938 1.84375 -14.765625 C 1.84375 -14.953125 1.863281 -15.140625 1.90625 -15.328125 C 2.019531 -16.828125 2.601562 -18.03125 3.65625 -18.9375 C 4.707031 -19.84375 6.113281 -20.296875 7.875 -20.296875 C 8.914062 -20.296875 10.207031 -20.203125 11.75 -20.015625 L 13.53125 -20.015625 L 13.171875 -15.84375 L 12.875 -15.84375 C 12.875 -16.820312 12.507812 -17.609375 11.78125 -18.203125 C 11.050781 -18.804688 10.082031 -19.109375 8.875 -19.109375 C 7.394531 -19.109375 6.320312 -18.65625 5.65625 -17.75 C 5.3125 -17.3125 5.140625 -16.875 5.140625 -16.4375 C 5.140625 -16 5.226562 -15.628906 5.40625 -15.328125 C 5.664062 -14.835938 6.242188 -14.304688 7.140625 -13.734375 L 12.5625 -10.203125 C 14.269531 -9.085938 15.125 -7.628906 15.125 -5.828125 C 15.125 -3.816406 14.4375 -2.273438 13.0625 -1.203125 C 11.6875 -0.140625 9.863281 0.390625 7.59375 0.390625 C 6.300781 0.390625 5.109375 0.234375 4.015625 -0.078125 C 2.929688 -0.390625 2.132812 -0.8125 1.625 -1.34375 C 1.488281 -1.695312 1.421875 -2.128906 1.421875 -2.640625 Z M 1.421875 -2.640625 "/></g></g></g><g fill="#c1272d" fill-opacity="1"><g transform="translate(195.473416, 212.270787)"><g><path d="M 20.984375 -0.28125 L 21.25 -0.28125 L 21.25 0 L 12.171875 0 L 12.171875 -0.28125 L 12.4375 -0.28125 C 12.851562 -0.28125 13.160156 -0.40625 13.359375 -0.65625 C 13.554688 -0.914062 13.65625 -1.160156 13.65625 -1.390625 C 13.65625 -1.617188 13.609375 -1.847656 13.515625 -2.078125 L 12.125 -5.578125 L 5.46875 -5.578125 L 3.984375 -2.078125 C 3.890625 -1.828125 3.84375 -1.59375 3.84375 -1.375 C 3.84375 -1.15625 3.945312 -0.914062 4.15625 -0.65625 C 4.363281 -0.40625 4.675781 -0.28125 5.09375 -0.28125 L 5.328125 -0.28125 L 5.328125 0 L -0.765625 0 L -0.765625 -0.28125 L -0.515625 -0.28125 C -0.078125 -0.28125 0.359375 -0.410156 0.796875 -0.671875 C 1.234375 -0.941406 1.59375 -1.34375 1.875 -1.875 L 8.453125 -16.75 C 9.335938 -18.625 9.8125 -19.863281 9.875 -20.46875 L 10.125 -20.46875 L 18.578125 -1.9375 C 18.859375 -1.382812 19.21875 -0.96875 19.65625 -0.6875 C 20.09375 -0.414062 20.535156 -0.28125 20.984375 -0.28125 Z M 5.953125 -6.765625 L 11.640625 -6.765625 L 8.875 -13.765625 Z M 5.953125 -6.765625 "/></g></g></g><g fill="#c1272d" fill-opacity="1"><g transform="translate(215.829032, 212.270787)"><g><path d="M 0.96875 -0.28125 L 1.3125 -0.28125 C 1.757812 -0.28125 2.144531 -0.425781 2.46875 -0.71875 C 2.789062 -1.019531 2.953125 -1.378906 2.953125 -1.796875 L 2.953125 -15.265625 C 2.953125 -15.679688 2.789062 -16.035156 2.46875 -16.328125 C 2.144531 -16.628906 1.757812 -16.78125 1.3125 -16.78125 L 0.96875 -16.78125 L 0.96875 -17.0625 L 9.046875 -17.0625 L 9.046875 -16.78125 L 8.703125 -16.78125 C 8.265625 -16.78125 7.882812 -16.632812 7.5625 -16.34375 C 7.238281 -16.0625 7.066406 -15.710938 7.046875 -15.296875 L 7.046875 -1.796875 C 7.066406 -1.359375 7.238281 -0.992188 7.5625 -0.703125 C 7.882812 -0.421875 8.265625 -0.28125 8.703125 -0.28125 L 9.046875 -0.28125 L 9.046875 0 L 0.96875 0 Z M 0.96875 -0.28125 "/></g></g></g><g fill="#c1272d" fill-opacity="1"><g transform="translate(225.83626, 212.270787)"><g><path d="M 8.046875 -15.890625 L 7.140625 -15.890625 L 7.140625 -1.796875 C 7.140625 -1.335938 7.296875 -0.96875 7.609375 -0.6875 C 7.921875 -0.414062 8.273438 -0.28125 8.671875 -0.28125 L 8.984375 -0.28125 L 8.984375 0 L 1.171875 0 L 1.171875 -0.28125 L 1.5 -0.28125 C 1.925781 -0.28125 2.285156 -0.421875 2.578125 -0.703125 C 2.867188 -0.992188 3.015625 -1.347656 3.015625 -1.765625 L 3.015625 -15.296875 C 3.015625 -15.710938 2.867188 -16.0625 2.578125 -16.34375 C 2.285156 -16.632812 1.9375 -16.78125 1.53125 -16.78125 L 1.171875 -16.78125 L 1.171875 -17.0625 L 9.890625 -17.0625 C 11.597656 -17.0625 13.03125 -16.726562 14.1875 -16.0625 C 15.476562 -15.320312 16.125 -14.101562 16.125 -12.40625 C 16.125 -11.300781 15.789062 -10.304688 15.125 -9.421875 C 14.46875 -8.546875 13.484375 -8.015625 12.171875 -7.828125 C 12.679688 -7.648438 13.1875 -7.320312 13.6875 -6.84375 C 14.195312 -6.375 14.601562 -5.894531 14.90625 -5.40625 C 15.507812 -4.320312 16.140625 -3.328125 16.796875 -2.421875 C 17.460938 -1.523438 18 -0.941406 18.40625 -0.671875 C 18.820312 -0.410156 19.320312 -0.28125 19.90625 -0.28125 L 19.90625 0 L 17.515625 0 C 15.941406 0 14.734375 -0.1875 13.890625 -0.5625 C 13.046875 -0.945312 12.289062 -1.671875 11.625 -2.734375 C 10.601562 -4.359375 9.96875 -5.644531 9.71875 -6.59375 C 9.5 -7.164062 9.234375 -7.59375 8.921875 -7.875 C 8.609375 -8.15625 8.304688 -8.316406 8.015625 -8.359375 L 8.015625 -8.59375 L 8.734375 -8.59375 C 10.335938 -8.601562 11.320312 -9.550781 11.6875 -11.4375 C 11.757812 -11.71875 11.796875 -11.960938 11.796875 -12.171875 C 11.796875 -12.378906 11.785156 -12.664062 11.765625 -13.03125 C 11.753906 -13.40625 11.640625 -13.820312 11.421875 -14.28125 C 11.203125 -14.75 10.921875 -15.085938 10.578125 -15.296875 C 9.992188 -15.660156 9.390625 -15.851562 8.765625 -15.875 C 8.554688 -15.882812 8.316406 -15.890625 8.046875 -15.890625 Z M 8.046875 -15.890625 "/></g></g></g><g fill="#c1272d" fill-opacity="1"><g transform="translate(244.514527, 212.270787)"><g><path d="M 0.96875 0 L 0.96875 -0.28125 L 1.3125 -0.28125 C 1.75 -0.28125 2.113281 -0.421875 2.40625 -0.703125 C 2.695312 -0.992188 2.84375 -1.347656 2.84375 -1.765625 L 2.84375 -15.265625 C 2.84375 -15.679688 2.691406 -16.035156 2.390625 -16.328125 C 2.085938 -16.628906 1.726562 -16.78125 1.3125 -16.78125 L 0.96875 -16.78125 L 0.96875 -17.0625 L 8.875 -17.0625 L 8.875 -16.78125 L 8.53125 -16.78125 C 8.09375 -16.78125 7.722656 -16.632812 7.421875 -16.34375 C 7.117188 -16.0625 6.96875 -15.703125 6.96875 -15.265625 L 6.96875 -1.140625 L 10.375 -1.140625 C 11.550781 -1.160156 12.546875 -1.523438 13.359375 -2.234375 C 14.179688 -2.941406 14.78125 -3.941406 15.15625 -5.234375 L 15.46875 -5.234375 L 14.359375 0 Z M 0.96875 0 "/></g></g></g><g fill="#c1272d" fill-opacity="1"><g transform="translate(260.093963, 212.270787)"><g><path d="M 0.96875 -0.28125 L 1.3125 -0.28125 C 1.757812 -0.28125 2.144531 -0.425781 2.46875 -0.71875 C 2.789062 -1.019531 2.953125 -1.378906 2.953125 -1.796875 L 2.953125 -15.265625 C 2.953125 -15.679688 2.789062 -16.035156 2.46875 -16.328125 C 2.144531 -16.628906 1.757812 -16.78125 1.3125 -16.78125 L 0.96875 -16.78125 L 0.96875 -17.0625 L 9.046875 -17.0625 L 9.046875 -16.78125 L 8.703125 -16.78125 C 8.265625 -16.78125 7.882812 -16.632812 7.5625 -16.34375 C 7.238281 -16.0625 7.066406 -15.710938 7.046875 -15.296875 L 7.046875 -1.796875 C 7.066406 -1.359375 7.238281 -0.992188 7.5625 -0.703125 C 7.882812 -0.421875 8.265625 -0.28125 8.703125 -0.28125 L 9.046875 -0.28125 L 9.046875 0 L 0.96875 0 Z M 0.96875 -0.28125 "/></g></g></g><g fill="#c1272d" fill-opacity="1"><g transform="translate(270.101191, 212.270787)"><g><path d="M 13.59375 -17.0625 L 21.578125 -17.0625 L 21.578125 -16.78125 L 21.09375 -16.78125 C 20.664062 -16.78125 20.300781 -16.644531 20 -16.375 C 19.707031 -16.113281 19.550781 -15.773438 19.53125 -15.359375 L 19.53125 -2.921875 C 19.53125 -1.753906 19.609375 -0.789062 19.765625 -0.03125 L 19.828125 0.375 L 19.5625 0.375 L 6.515625 -11.140625 L 6.515625 -1.734375 C 6.535156 -1.316406 6.691406 -0.96875 6.984375 -0.6875 C 7.273438 -0.414062 7.640625 -0.28125 8.078125 -0.28125 L 8.5625 -0.28125 L 8.5625 0 L 0.59375 0 L 0.59375 -0.28125 L 1.046875 -0.28125 C 1.484375 -0.28125 1.851562 -0.414062 2.15625 -0.6875 C 2.457031 -0.96875 2.609375 -1.316406 2.609375 -1.734375 L 2.609375 -14.25 C 2.609375 -15.382812 2.535156 -16.320312 2.390625 -17.0625 L 2.328125 -17.453125 L 2.59375 -17.4375 L 15.609375 -5.96875 L 15.609375 -15.328125 C 15.609375 -15.742188 15.460938 -16.085938 15.171875 -16.359375 C 14.878906 -16.640625 14.515625 -16.78125 14.078125 -16.78125 L 13.59375 -16.78125 Z M 13.59375 -17.0625 "/></g></g></g><g fill="#c1272d" fill-opacity="1"><g transform="translate(292.247865, 212.270787)"><g><path d="M 14.359375 0 L 0.96875 0 L 0.96875 -0.28125 L 1.3125 -0.28125 C 1.75 -0.28125 2.113281 -0.421875 2.40625 -0.703125 C 2.695312 -0.992188 2.851562 -1.347656 2.875 -1.765625 L 2.875 -15.296875 C 2.851562 -15.710938 2.695312 -16.0625 2.40625 -16.34375 C 2.113281 -16.632812 1.75 -16.78125 1.3125 -16.78125 L 0.96875 -16.78125 L 0.96875 -17.0625 L 10.984375 -17.0625 C 11.492188 -17.0625 12.050781 -17.109375 12.65625 -17.203125 C 13.257812 -17.296875 13.6875 -17.390625 13.9375 -17.484375 L 13.9375 -12.96875 L 13.65625 -12.96875 L 13.65625 -13.21875 C 13.65625 -14.050781 13.425781 -14.703125 12.96875 -15.171875 C 12.507812 -15.648438 11.875 -15.898438 11.0625 -15.921875 L 6.96875 -15.921875 L 6.96875 -9.015625 L 10.203125 -9.015625 C 10.847656 -9.035156 11.367188 -9.253906 11.765625 -9.671875 C 12.171875 -10.085938 12.375 -10.617188 12.375 -11.265625 L 12.375 -11.453125 L 12.65625 -11.453125 L 12.65625 -5.4375 L 12.375 -5.4375 L 12.375 -5.625 C 12.375 -6.519531 12.039062 -7.164062 11.375 -7.5625 C 11.03125 -7.769531 10.648438 -7.875 10.234375 -7.875 L 6.96875 -7.875 L 6.96875 -1.140625 L 10.375 -1.140625 C 11.550781 -1.160156 12.550781 -1.523438 13.375 -2.234375 C 14.195312 -2.941406 14.800781 -3.941406 15.1875 -5.234375 L 15.4375 -5.234375 Z M 14.359375 0 "/></g></g></g><g fill="#c1272d" fill-opacity="1"><g transform="translate(308.254658, 212.270787)"><g><path d="M 1.3125 -2.328125 C 1.3125 -3.566406 1.585938 -4.617188 2.140625 -5.484375 L 2.359375 -5.484375 C 2.335938 -5.359375 2.328125 -5.238281 2.328125 -5.125 C 2.328125 -3.96875 2.738281 -2.953125 3.5625 -2.078125 C 4.394531 -1.203125 5.550781 -0.765625 7.03125 -0.765625 C 8.082031 -0.765625 8.894531 -1.007812 9.46875 -1.5 C 10.050781 -2 10.34375 -2.550781 10.34375 -3.15625 C 10.34375 -3.757812 10.175781 -4.242188 9.84375 -4.609375 C 9.519531 -4.984375 8.976562 -5.421875 8.21875 -5.921875 L 4.1875 -8.46875 C 2.476562 -9.53125 1.625 -10.894531 1.625 -12.5625 C 1.625 -12.738281 1.632812 -12.921875 1.65625 -13.109375 C 1.757812 -14.453125 2.273438 -15.507812 3.203125 -16.28125 C 4.140625 -17.050781 5.238281 -17.4375 6.5 -17.4375 C 7.757812 -17.4375 9.09375 -17.347656 10.5 -17.171875 L 12.03125 -17.171875 L 11.625 -13.421875 L 11.375 -13.421875 C 11.375 -14.316406 11.066406 -15.019531 10.453125 -15.53125 C 9.835938 -16.039062 9.019531 -16.296875 8 -16.296875 C 6.988281 -16.296875 6.1875 -16.082031 5.59375 -15.65625 C 5.007812 -15.226562 4.71875 -14.664062 4.71875 -13.96875 C 4.71875 -13.394531 5.003906 -12.898438 5.578125 -12.484375 C 5.804688 -12.316406 6.132812 -12.097656 6.5625 -11.828125 L 11.09375 -9.046875 C 12.644531 -8.097656 13.421875 -6.789062 13.421875 -5.125 C 13.421875 -3.351562 12.800781 -1.992188 11.5625 -1.046875 C 10.320312 -0.0976562 8.710938 0.375 6.734375 0.375 C 5.523438 0.375 4.457031 0.234375 3.53125 -0.046875 C 2.601562 -0.335938 1.921875 -0.703125 1.484375 -1.140625 C 1.367188 -1.484375 1.3125 -1.878906 1.3125 -2.328125 Z M 1.3125 -2.328125 "/></g></g></g><g transform="matrix(1, 0, 0, 1, 194, 229)"><g clip-path="url(#9e440a5131)"><g fill="#c1272d" fill-opacity="1"><g transform="translate(1.473415, 8.759806)"><g><path d="M 8.875 -6.171875 L 8.8125 -6.171875 C 8.59375 -6.171875 8.398438 -6.085938 8.234375 -5.921875 C 8.140625 -5.835938 8.070312 -5.734375 8.03125 -5.609375 L 6.546875 -0.890625 C 6.421875 -0.515625 6.351562 -0.179688 6.34375 0.109375 L 6.265625 0.109375 L 4.4375 -5 L 3.078125 -0.890625 C 2.960938 -0.515625 2.898438 -0.179688 2.890625 0.109375 L 2.8125 0.109375 L 0.78125 -5.625 C 0.707031 -5.800781 0.597656 -5.9375 0.453125 -6.03125 C 0.304688 -6.125 0.15625 -6.171875 0 -6.171875 L -0.078125 -6.171875 L -0.078125 -6.25 L 1.90625 -6.25 L 1.90625 -6.171875 L 1.828125 -6.171875 C 1.703125 -6.171875 1.609375 -6.128906 1.546875 -6.046875 C 1.484375 -5.960938 1.453125 -5.882812 1.453125 -5.8125 C 1.453125 -5.75 1.460938 -5.6875 1.484375 -5.625 L 2.84375 -1.265625 L 4.5 -6.40625 L 4.578125 -6.390625 L 6.34375 -1.453125 L 7.546875 -5.625 C 7.554688 -5.695312 7.5625 -5.765625 7.5625 -5.828125 C 7.5625 -5.898438 7.53125 -5.972656 7.46875 -6.046875 C 7.414062 -6.128906 7.328125 -6.171875 7.203125 -6.171875 L 7.125 -6.171875 L 7.125 -6.25 L 8.875 -6.25 Z M 8.875 -6.171875 "/></g></g></g><g fill="#c1272d" fill-opacity="1"><g transform="translate(10.876147, 8.759806)"><g><path d="M 4.46875 -0.09375 C 4.601562 -0.09375 4.722656 -0.132812 4.828125 -0.21875 C 4.929688 -0.3125 4.984375 -0.425781 4.984375 -0.5625 L 4.984375 -2.515625 L 1.6875 -2.515625 L 1.6875 -0.5625 C 1.695312 -0.425781 1.75 -0.3125 1.84375 -0.21875 C 1.945312 -0.132812 2.066406 -0.09375 2.203125 -0.09375 L 2.3125 -0.09375 L 2.3125 0 L 0.484375 0 L 0.484375 -0.09375 L 0.59375 -0.09375 C 0.738281 -0.09375 0.859375 -0.140625 0.953125 -0.234375 C 1.054688 -0.328125 1.113281 -0.441406 1.125 -0.578125 L 1.125 -4.796875 C 1.113281 -4.921875 1.054688 -5.03125 0.953125 -5.125 C 0.847656 -5.21875 0.726562 -5.265625 0.59375 -5.265625 L 0.484375 -5.265625 L 0.484375 -5.359375 L 2.3125 -5.359375 L 2.3125 -5.265625 L 2.203125 -5.265625 C 2.066406 -5.265625 1.945312 -5.21875 1.84375 -5.125 C 1.75 -5.039062 1.695312 -4.929688 1.6875 -4.796875 L 1.6875 -2.78125 L 4.984375 -2.78125 L 4.984375 -4.796875 C 4.984375 -4.921875 4.945312 -5.019531 4.875 -5.09375 C 4.75 -5.207031 4.613281 -5.265625 4.46875 -5.265625 L 4.359375 -5.265625 L 4.359375 -5.359375 L 6.1875 -5.359375 L 6.1875 -5.265625 L 6.078125 -5.265625 C 5.941406 -5.265625 5.820312 -5.21875 5.71875 -5.125 C 5.613281 -5.039062 5.5625 -4.9375 5.5625 -4.8125 L 5.5625 -0.5625 C 5.5625 -0.425781 5.597656 -0.328125 5.671875 -0.265625 C 5.804688 -0.148438 5.941406 -0.09375 6.078125 -0.09375 L 6.1875 -0.09375 L 6.1875 0 L 4.359375 0 L 4.359375 -0.09375 Z M 4.46875 -0.09375 "/></g></g></g><g fill="#c1272d" fill-opacity="1"><g transform="translate(18.169513, 8.759806)"><g><path d="M 0.609375 -0.09375 C 0.753906 -0.09375 0.875 -0.132812 0.96875 -0.21875 C 1.070312 -0.3125 1.128906 -0.425781 1.140625 -0.5625 L 1.140625 -4.8125 C 1.140625 -4.9375 1.085938 -5.039062 0.984375 -5.125 C 0.878906 -5.21875 0.753906 -5.265625 0.609375 -5.265625 L 0.484375 -5.265625 L 0.484375 -5.359375 L 3.09375 -5.359375 C 3.34375 -5.359375 3.554688 -5.375 3.734375 -5.40625 C 3.921875 -5.445312 4.046875 -5.476562 4.109375 -5.5 L 4.109375 -4.484375 L 4 -4.5 L 4 -4.625 C 4 -4.75 3.957031 -4.851562 3.875 -4.9375 C 3.789062 -5.03125 3.6875 -5.078125 3.5625 -5.078125 L 1.703125 -5.078125 L 1.703125 -2.8125 L 3.21875 -2.8125 C 3.34375 -2.8125 3.4375 -2.847656 3.5 -2.921875 C 3.5625 -2.992188 3.59375 -3.082031 3.59375 -3.1875 L 3.59375 -3.3125 L 3.6875 -3.3125 L 3.6875 -2.0625 L 3.59375 -2.0625 L 3.59375 -2.171875 C 3.59375 -2.335938 3.53125 -2.453125 3.40625 -2.515625 C 3.351562 -2.523438 3.300781 -2.535156 3.25 -2.546875 L 1.703125 -2.546875 L 1.703125 -0.28125 L 3.09375 -0.28125 C 3.375 -0.28125 3.609375 -0.328125 3.796875 -0.421875 C 3.984375 -0.515625 4.125 -0.625 4.21875 -0.75 C 4.320312 -0.882812 4.421875 -1.0625 4.515625 -1.28125 L 4.609375 -1.28125 L 4.125 0 L 0.484375 0 L 0.484375 -0.09375 Z M 0.609375 -0.09375 "/></g></g></g><g fill="#c1272d" fill-opacity="1"><g transform="translate(23.675291, 8.759806)"><g><path d="M 2.15625 -5.078125 L 1.6875 -5.078125 L 1.6875 -0.578125 C 1.695312 -0.390625 1.78125 -0.25 1.9375 -0.15625 C 2.019531 -0.113281 2.109375 -0.09375 2.203125 -0.09375 L 2.3125 -0.09375 L 2.328125 0 L 0.484375 0 L 0.484375 -0.09375 L 0.609375 -0.09375 C 0.753906 -0.09375 0.875 -0.132812 0.96875 -0.21875 C 1.070312 -0.3125 1.125 -0.425781 1.125 -0.5625 L 1.125 -4.8125 C 1.125 -4.9375 1.070312 -5.039062 0.96875 -5.125 C 0.875 -5.21875 0.753906 -5.265625 0.609375 -5.265625 L 0.484375 -5.265625 L 0.484375 -5.359375 L 2.734375 -5.359375 C 3.296875 -5.359375 3.738281 -5.226562 4.0625 -4.96875 C 4.382812 -4.71875 4.546875 -4.382812 4.546875 -3.96875 C 4.546875 -3.550781 4.414062 -3.203125 4.15625 -2.921875 C 3.894531 -2.640625 3.5625 -2.476562 3.15625 -2.4375 C 3.34375 -2.351562 3.570312 -2.125 3.84375 -1.75 C 3.832031 -1.75 3.929688 -1.613281 4.140625 -1.34375 C 4.359375 -1.082031 4.53125 -0.878906 4.65625 -0.734375 C 4.789062 -0.585938 4.898438 -0.476562 4.984375 -0.40625 C 5.203125 -0.195312 5.453125 -0.09375 5.734375 -0.09375 L 5.734375 0 L 5.453125 0 C 4.984375 0 4.617188 -0.09375 4.359375 -0.28125 C 4.148438 -0.414062 3.960938 -0.582031 3.796875 -0.78125 C 3.765625 -0.832031 3.613281 -1.039062 3.34375 -1.40625 C 3.082031 -1.78125 2.941406 -1.984375 2.921875 -2.015625 C 2.597656 -2.410156 2.296875 -2.609375 2.015625 -2.609375 L 2.015625 -2.703125 C 2.710938 -2.703125 3.132812 -2.738281 3.28125 -2.8125 C 3.476562 -2.90625 3.613281 -3.007812 3.6875 -3.125 C 3.832031 -3.363281 3.90625 -3.628906 3.90625 -3.921875 C 3.90625 -4.273438 3.796875 -4.550781 3.578125 -4.75 C 3.367188 -4.945312 3.082031 -5.054688 2.71875 -5.078125 C 2.550781 -5.078125 2.363281 -5.078125 2.15625 -5.078125 Z M 2.15625 -5.078125 "/></g></g></g><g fill="#c1272d" fill-opacity="1"><g transform="translate(29.90504, 8.759806)"><g><path d="M 0.609375 -0.09375 C 0.753906 -0.09375 0.875 -0.132812 0.96875 -0.21875 C 1.070312 -0.3125 1.128906 -0.425781 1.140625 -0.5625 L 1.140625 -4.8125 C 1.140625 -4.9375 1.085938 -5.039062 0.984375 -5.125 C 0.878906 -5.21875 0.753906 -5.265625 0.609375 -5.265625 L 0.484375 -5.265625 L 0.484375 -5.359375 L 3.09375 -5.359375 C 3.34375 -5.359375 3.554688 -5.375 3.734375 -5.40625 C 3.921875 -5.445312 4.046875 -5.476562 4.109375 -5.5 L 4.109375 -4.484375 L 4 -4.5 L 4 -4.625 C 4 -4.75 3.957031 -4.851562 3.875 -4.9375 C 3.789062 -5.03125 3.6875 -5.078125 3.5625 -5.078125 L 1.703125 -5.078125 L 1.703125 -2.8125 L 3.21875 -2.8125 C 3.34375 -2.8125 3.4375 -2.847656 3.5 -2.921875 C 3.5625 -2.992188 3.59375 -3.082031 3.59375 -3.1875 L 3.59375 -3.3125 L 3.6875 -3.3125 L 3.6875 -2.0625 L 3.59375 -2.0625 L 3.59375 -2.171875 C 3.59375 -2.335938 3.53125 -2.453125 3.40625 -2.515625 C 3.351562 -2.523438 3.300781 -2.535156 3.25 -2.546875 L 1.703125 -2.546875 L 1.703125 -0.28125 L 3.09375 -0.28125 C 3.375 -0.28125 3.609375 -0.328125 3.796875 -0.421875 C 3.984375 -0.515625 4.125 -0.625 4.21875 -0.75 C 4.320312 -0.882812 4.421875 -1.0625 4.515625 -1.28125 L 4.609375 -1.28125 L 4.125 0 L 0.484375 0 L 0.484375 -0.09375 Z M 0.609375 -0.09375 "/></g></g></g><g fill="#c1272d" fill-opacity="1"><g transform="translate(35.410819, 8.759806)"><g/></g></g><g fill="#c1272d" fill-opacity="1"><g transform="translate(38.270955, 8.759806)"><g><path d="M 3.5625 -6.25 C 4.519531 -6.25 5.296875 -5.960938 5.890625 -5.390625 C 6.484375 -4.816406 6.78125 -4.0625 6.78125 -3.125 C 6.78125 -2.1875 6.484375 -1.429688 5.890625 -0.859375 C 5.296875 -0.285156 4.519531 0 3.5625 0 L 0.53125 0 L 0.53125 -0.09375 L 0.65625 -0.09375 C 0.8125 -0.09375 0.941406 -0.144531 1.046875 -0.25 C 1.160156 -0.363281 1.21875 -0.5 1.21875 -0.65625 L 1.21875 -5.65625 C 1.21875 -5.800781 1.160156 -5.921875 1.046875 -6.015625 C 0.929688 -6.117188 0.800781 -6.171875 0.65625 -6.171875 L 0.546875 -6.171875 L 0.53125 -6.25 Z M 1.8125 -5.984375 L 1.8125 -0.265625 L 3.5625 -0.265625 C 4.0625 -0.265625 4.503906 -0.382812 4.890625 -0.625 C 5.273438 -0.863281 5.570312 -1.195312 5.78125 -1.625 C 6 -2.0625 6.109375 -2.5625 6.109375 -3.125 C 6.109375 -3.988281 5.875 -4.679688 5.40625 -5.203125 C 4.9375 -5.722656 4.320312 -5.984375 3.5625 -5.984375 Z M 1.8125 -5.984375 "/></g></g></g><g fill="#c1272d" fill-opacity="1"><g transform="translate(46.10954, 8.759806)"><g><path d="M 2.15625 -5.078125 L 1.6875 -5.078125 L 1.6875 -0.578125 C 1.695312 -0.390625 1.78125 -0.25 1.9375 -0.15625 C 2.019531 -0.113281 2.109375 -0.09375 2.203125 -0.09375 L 2.3125 -0.09375 L 2.328125 0 L 0.484375 0 L 0.484375 -0.09375 L 0.609375 -0.09375 C 0.753906 -0.09375 0.875 -0.132812 0.96875 -0.21875 C 1.070312 -0.3125 1.125 -0.425781 1.125 -0.5625 L 1.125 -4.8125 C 1.125 -4.9375 1.070312 -5.039062 0.96875 -5.125 C 0.875 -5.21875 0.753906 -5.265625 0.609375 -5.265625 L 0.484375 -5.265625 L 0.484375 -5.359375 L 2.734375 -5.359375 C 3.296875 -5.359375 3.738281 -5.226562 4.0625 -4.96875 C 4.382812 -4.71875 4.546875 -4.382812 4.546875 -3.96875 C 4.546875 -3.550781 4.414062 -3.203125 4.15625 -2.921875 C 3.894531 -2.640625 3.5625 -2.476562 3.15625 -2.4375 C 3.34375 -2.351562 3.570312 -2.125 3.84375 -1.75 C 3.832031 -1.75 3.929688 -1.613281 4.140625 -1.34375 C 4.359375 -1.082031 4.53125 -0.878906 4.65625 -0.734375 C 4.789062 -0.585938 4.898438 -0.476562 4.984375 -0.40625 C 5.203125 -0.195312 5.453125 -0.09375 5.734375 -0.09375 L 5.734375 0 L 5.453125 0 C 4.984375 0 4.617188 -0.09375 4.359375 -0.28125 C 4.148438 -0.414062 3.960938 -0.582031 3.796875 -0.78125 C 3.765625 -0.832031 3.613281 -1.039062 3.34375 -1.40625 C 3.082031 -1.78125 2.941406 -1.984375 2.921875 -2.015625 C 2.597656 -2.410156 2.296875 -2.609375 2.015625 -2.609375 L 2.015625 -2.703125 C 2.710938 -2.703125 3.132812 -2.738281 3.28125 -2.8125 C 3.476562 -2.90625 3.613281 -3.007812 3.6875 -3.125 C 3.832031 -3.363281 3.90625 -3.628906 3.90625 -3.921875 C 3.90625 -4.273438 3.796875 -4.550781 3.578125 -4.75 C 3.367188 -4.945312 3.082031 -5.054688 2.71875 -5.078125 C 2.550781 -5.078125 2.363281 -5.078125 2.15625 -5.078125 Z M 2.15625 -5.078125 "/></g></g></g><g fill="#c1272d" fill-opacity="1"><g transform="translate(52.339288, 8.759806)"><g><path d="M 0.609375 -0.09375 C 0.753906 -0.09375 0.875 -0.132812 0.96875 -0.21875 C 1.070312 -0.3125 1.128906 -0.425781 1.140625 -0.5625 L 1.140625 -4.8125 C 1.140625 -4.9375 1.085938 -5.039062 0.984375 -5.125 C 0.878906 -5.21875 0.753906 -5.265625 0.609375 -5.265625 L 0.484375 -5.265625 L 0.484375 -5.359375 L 3.09375 -5.359375 C 3.34375 -5.359375 3.554688 -5.375 3.734375 -5.40625 C 3.921875 -5.445312 4.046875 -5.476562 4.109375 -5.5 L 4.109375 -4.484375 L 4 -4.5 L 4 -4.625 C 4 -4.75 3.957031 -4.851562 3.875 -4.9375 C 3.789062 -5.03125 3.6875 -5.078125 3.5625 -5.078125 L 1.703125 -5.078125 L 1.703125 -2.8125 L 3.21875 -2.8125 C 3.34375 -2.8125 3.4375 -2.847656 3.5 -2.921875 C 3.5625 -2.992188 3.59375 -3.082031 3.59375 -3.1875 L 3.59375 -3.3125 L 3.6875 -3.3125 L 3.6875 -2.0625 L 3.59375 -2.0625 L 3.59375 -2.171875 C 3.59375 -2.335938 3.53125 -2.453125 3.40625 -2.515625 C 3.351562 -2.523438 3.300781 -2.535156 3.25 -2.546875 L 1.703125 -2.546875 L 1.703125 -0.28125 L 3.09375 -0.28125 C 3.375 -0.28125 3.609375 -0.328125 3.796875 -0.421875 C 3.984375 -0.515625 4.125 -0.625 4.21875 -0.75 C 4.320312 -0.882812 4.421875 -1.0625 4.515625 -1.28125 L 4.609375 -1.28125 L 4.125 0 L 0.484375 0 L 0.484375 -0.09375 Z M 0.609375 -0.09375 "/></g></g></g><g fill="#c1272d" fill-opacity="1"><g transform="translate(57.845067, 8.759806)"><g><path d="M 5.90625 -0.09375 L 5.96875 -0.09375 L 5.96875 0 L 4.140625 0 L 4.140625 -0.09375 L 4.203125 -0.09375 C 4.316406 -0.09375 4.40625 -0.128906 4.46875 -0.203125 C 4.53125 -0.285156 4.5625 -0.359375 4.5625 -0.421875 C 4.5625 -0.492188 4.546875 -0.5625 4.515625 -0.625 L 4.03125 -1.8125 L 1.765625 -1.8125 L 1.28125 -0.65625 C 1.25 -0.570312 1.234375 -0.492188 1.234375 -0.421875 C 1.234375 -0.359375 1.257812 -0.285156 1.3125 -0.203125 C 1.375 -0.128906 1.46875 -0.09375 1.59375 -0.09375 L 1.65625 -0.09375 L 1.65625 0 L -0.046875 0 L -0.046875 -0.09375 L 0.03125 -0.09375 C 0.15625 -0.09375 0.28125 -0.132812 0.40625 -0.21875 C 0.53125 -0.300781 0.632812 -0.429688 0.71875 -0.609375 C 2.03125 -3.398438 2.710938 -4.859375 2.765625 -4.984375 C 2.859375 -5.234375 2.910156 -5.398438 2.921875 -5.484375 L 3 -5.484375 L 5.203125 -0.609375 C 5.378906 -0.265625 5.613281 -0.09375 5.90625 -0.09375 Z M 1.890625 -2.078125 L 3.921875 -2.078125 L 2.921875 -4.53125 Z M 1.890625 -2.078125 "/></g></g></g><g fill="#c1272d" fill-opacity="1"><g transform="translate(64.396585, 8.759806)"><g><path d="M 7.65625 -0.09375 L 7.78125 -0.09375 L 7.78125 0 L 5.921875 0 L 5.921875 -0.078125 L 6.0625 -0.078125 C 6.144531 -0.078125 6.222656 -0.109375 6.296875 -0.171875 C 6.367188 -0.242188 6.394531 -0.328125 6.375 -0.421875 L 5.921875 -4.109375 L 4.234375 -0.78125 C 4.066406 -0.414062 3.960938 -0.113281 3.921875 0.125 L 3.828125 0.125 L 1.671875 -4.03125 L 1.265625 -0.421875 C 1.253906 -0.335938 1.28125 -0.257812 1.34375 -0.1875 C 1.414062 -0.113281 1.5 -0.078125 1.59375 -0.078125 L 1.71875 -0.078125 L 1.71875 0 L 0.078125 0 L 0.078125 -0.09375 L 0.203125 -0.09375 C 0.421875 -0.09375 0.585938 -0.171875 0.703125 -0.328125 C 0.765625 -0.398438 0.800781 -0.488281 0.8125 -0.59375 L 1.515625 -5.484375 L 1.59375 -5.484375 L 3.953125 -0.953125 L 6.234375 -5.484375 L 6.3125 -5.484375 L 7.046875 -0.578125 C 7.066406 -0.429688 7.132812 -0.3125 7.25 -0.21875 C 7.363281 -0.132812 7.5 -0.09375 7.65625 -0.09375 Z M 7.65625 -0.09375 "/></g></g></g><g fill="#c1272d" fill-opacity="1"><g transform="translate(72.869764, 8.759806)"><g><path d="M 0.515625 -0.296875 C 0.492188 -0.367188 0.484375 -0.515625 0.484375 -0.734375 C 0.484375 -0.953125 0.523438 -1.175781 0.609375 -1.40625 L 0.71875 -1.40625 C 0.707031 -1.351562 0.703125 -1.300781 0.703125 -1.25 C 0.703125 -0.925781 0.804688 -0.660156 1.015625 -0.453125 C 1.234375 -0.242188 1.53125 -0.140625 1.90625 -0.140625 C 2.300781 -0.140625 2.609375 -0.226562 2.828125 -0.40625 C 3.046875 -0.59375 3.15625 -0.832031 3.15625 -1.125 C 3.15625 -1.414062 3.046875 -1.65625 2.828125 -1.84375 L 1.046875 -3.21875 C 0.753906 -3.457031 0.609375 -3.785156 0.609375 -4.203125 C 0.609375 -4.429688 0.671875 -4.644531 0.796875 -4.84375 C 0.929688 -5.039062 1.113281 -5.195312 1.34375 -5.3125 C 1.570312 -5.425781 1.84375 -5.484375 2.15625 -5.484375 C 2.46875 -5.484375 2.738281 -5.457031 2.96875 -5.40625 L 3.265625 -5.40625 L 3.28125 -4.4375 L 3.1875 -4.4375 C 3.1875 -4.6875 3.097656 -4.878906 2.921875 -5.015625 C 2.753906 -5.148438 2.507812 -5.21875 2.1875 -5.21875 C 1.863281 -5.21875 1.597656 -5.132812 1.390625 -4.96875 C 1.179688 -4.8125 1.078125 -4.601562 1.078125 -4.34375 C 1.078125 -4.082031 1.195312 -3.859375 1.4375 -3.671875 L 3.234375 -2.265625 C 3.503906 -2.046875 3.640625 -1.734375 3.640625 -1.328125 C 3.640625 -0.921875 3.484375 -0.578125 3.171875 -0.296875 C 2.867188 -0.015625 2.5 0.125 2.0625 0.125 C 1.769531 0.125 1.476562 0.0859375 1.1875 0.015625 C 0.894531 -0.0546875 0.671875 -0.160156 0.515625 -0.296875 Z M 0.515625 -0.296875 "/></g></g></g><g fill="#c1272d" fill-opacity="1"><g transform="translate(77.624751, 8.759806)"><g/></g></g><g fill="#c1272d" fill-opacity="1"><g transform="translate(80.484887, 8.759806)"><g><path d="M 5.265625 -5.453125 C 5.265625 -5.597656 5.210938 -5.722656 5.109375 -5.828125 C 5.003906 -5.929688 4.882812 -5.988281 4.75 -6 L 3.0625 -6 L 3.0625 -0.640625 C 3.0625 -0.484375 3.113281 -0.351562 3.21875 -0.25 C 3.332031 -0.144531 3.46875 -0.09375 3.625 -0.09375 L 3.75 -0.09375 L 3.75 0 L 1.78125 0 L 1.78125 -0.09375 L 1.90625 -0.09375 C 2.0625 -0.09375 2.191406 -0.144531 2.296875 -0.25 C 2.410156 -0.351562 2.46875 -0.484375 2.46875 -0.640625 L 2.46875 -6 L 0.78125 -6 C 0.632812 -5.988281 0.507812 -5.929688 0.40625 -5.828125 C 0.3125 -5.722656 0.265625 -5.597656 0.265625 -5.453125 L 0.265625 -5.3125 L 0.171875 -5.296875 L 0.171875 -6.421875 C 0.265625 -6.390625 0.421875 -6.351562 0.640625 -6.3125 C 0.859375 -6.28125 1.0625 -6.265625 1.25 -6.265625 L 4.265625 -6.265625 C 4.554688 -6.265625 4.800781 -6.285156 5 -6.328125 C 5.195312 -6.378906 5.316406 -6.410156 5.359375 -6.421875 L 5.359375 -5.296875 L 5.265625 -5.3125 Z M 5.265625 -5.453125 "/></g></g></g><g fill="#c1272d" fill-opacity="1"><g transform="translate(86.634194, 8.759806)"><g><path d="M 5.90625 -0.09375 L 5.96875 -0.09375 L 5.96875 0 L 4.140625 0 L 4.140625 -0.09375 L 4.203125 -0.09375 C 4.316406 -0.09375 4.40625 -0.128906 4.46875 -0.203125 C 4.53125 -0.285156 4.5625 -0.359375 4.5625 -0.421875 C 4.5625 -0.492188 4.546875 -0.5625 4.515625 -0.625 L 4.03125 -1.8125 L 1.765625 -1.8125 L 1.28125 -0.65625 C 1.25 -0.570312 1.234375 -0.492188 1.234375 -0.421875 C 1.234375 -0.359375 1.257812 -0.285156 1.3125 -0.203125 C 1.375 -0.128906 1.46875 -0.09375 1.59375 -0.09375 L 1.65625 -0.09375 L 1.65625 0 L -0.046875 0 L -0.046875 -0.09375 L 0.03125 -0.09375 C 0.15625 -0.09375 0.28125 -0.132812 0.40625 -0.21875 C 0.53125 -0.300781 0.632812 -0.429688 0.71875 -0.609375 C 2.03125 -3.398438 2.710938 -4.859375 2.765625 -4.984375 C 2.859375 -5.234375 2.910156 -5.398438 2.921875 -5.484375 L 3 -5.484375 L 5.203125 -0.609375 C 5.378906 -0.265625 5.613281 -0.09375 5.90625 -0.09375 Z M 1.890625 -2.078125 L 3.921875 -2.078125 L 2.921875 -4.53125 Z M 1.890625 -2.078125 "/></g></g></g><g fill="#c1272d" fill-opacity="1"><g transform="translate(93.185712, 8.759806)"><g><path d="M 5.625 0 L 5.296875 0 C 4.710938 0 4.273438 -0.171875 3.984375 -0.515625 L 2.015625 -2.65625 L 3.9375 -4.921875 C 4 -5.003906 4.003906 -5.082031 3.953125 -5.15625 C 3.910156 -5.226562 3.835938 -5.265625 3.734375 -5.265625 L 3.65625 -5.265625 L 3.65625 -5.359375 L 5.484375 -5.359375 L 5.484375 -5.265625 L 5.4375 -5.265625 C 5.070312 -5.265625 4.785156 -5.160156 4.578125 -4.953125 L 2.625 -2.875 L 4.84375 -0.453125 C 4.945312 -0.328125 5.054688 -0.234375 5.171875 -0.171875 C 5.285156 -0.117188 5.4375 -0.09375 5.625 -0.09375 Z M 2.21875 -0.09375 L 2.328125 -0.09375 L 2.328125 0 L 0.484375 0 L 0.484375 -0.09375 L 0.59375 -0.09375 C 0.738281 -0.09375 0.863281 -0.140625 0.96875 -0.234375 C 1.070312 -0.328125 1.125 -0.441406 1.125 -0.578125 L 1.125 -4.796875 C 1.125 -4.921875 1.070312 -5.03125 0.96875 -5.125 C 0.863281 -5.21875 0.738281 -5.265625 0.59375 -5.265625 L 0.484375 -5.265625 L 0.484375 -5.359375 L 2.328125 -5.359375 L 2.328125 -5.265625 L 2.21875 -5.265625 C 2.03125 -5.265625 1.878906 -5.191406 1.765625 -5.046875 C 1.722656 -4.972656 1.703125 -4.890625 1.703125 -4.796875 L 1.703125 -0.5625 C 1.703125 -0.425781 1.753906 -0.3125 1.859375 -0.21875 C 1.960938 -0.132812 2.082031 -0.09375 2.21875 -0.09375 Z M 2.21875 -0.09375 "/></g></g></g><g fill="#c1272d" fill-opacity="1"><g transform="translate(99.38865, 8.759806)"><g><path d="M 0.609375 -0.09375 C 0.753906 -0.09375 0.875 -0.132812 0.96875 -0.21875 C 1.070312 -0.3125 1.128906 -0.425781 1.140625 -0.5625 L 1.140625 -4.8125 C 1.140625 -4.9375 1.085938 -5.039062 0.984375 -5.125 C 0.878906 -5.21875 0.753906 -5.265625 0.609375 -5.265625 L 0.484375 -5.265625 L 0.484375 -5.359375 L 3.09375 -5.359375 C 3.34375 -5.359375 3.554688 -5.375 3.734375 -5.40625 C 3.921875 -5.445312 4.046875 -5.476562 4.109375 -5.5 L 4.109375 -4.484375 L 4 -4.5 L 4 -4.625 C 4 -4.75 3.957031 -4.851562 3.875 -4.9375 C 3.789062 -5.03125 3.6875 -5.078125 3.5625 -5.078125 L 1.703125 -5.078125 L 1.703125 -2.8125 L 3.21875 -2.8125 C 3.34375 -2.8125 3.4375 -2.847656 3.5 -2.921875 C 3.5625 -2.992188 3.59375 -3.082031 3.59375 -3.1875 L 3.59375 -3.3125 L 3.6875 -3.3125 L 3.6875 -2.0625 L 3.59375 -2.0625 L 3.59375 -2.171875 C 3.59375 -2.335938 3.53125 -2.453125 3.40625 -2.515625 C 3.351562 -2.523438 3.300781 -2.535156 3.25 -2.546875 L 1.703125 -2.546875 L 1.703125 -0.28125 L 3.09375 -0.28125 C 3.375 -0.28125 3.609375 -0.328125 3.796875 -0.421875 C 3.984375 -0.515625 4.125 -0.625 4.21875 -0.75 C 4.320312 -0.882812 4.421875 -1.0625 4.515625 -1.28125 L 4.609375 -1.28125 L 4.125 0 L 0.484375 0 L 0.484375 -0.09375 Z M 0.609375 -0.09375 "/></g></g></g><g fill="#c1272d" fill-opacity="1"><g transform="translate(104.894429, 8.759806)"><g/></g></g><g fill="#c1272d" fill-opacity="1"><g transform="translate(107.754565, 8.759806)"><g><path d="M 4.21875 -6.15625 L 4.21875 -5.40625 L 4.125 -5.40625 L 4.125 -5.546875 C 4.125 -5.660156 4.082031 -5.757812 4 -5.84375 C 3.914062 -5.9375 3.8125 -5.984375 3.6875 -5.984375 L 1.8125 -5.984375 L 1.8125 -3.21875 L 3.3125 -3.21875 C 3.4375 -3.21875 3.539062 -3.257812 3.625 -3.34375 C 3.707031 -3.4375 3.75 -3.539062 3.75 -3.65625 L 3.75 -3.796875 L 3.828125 -3.796875 L 3.828125 -2.375 L 3.75 -2.375 L 3.75 -2.515625 C 3.75 -2.628906 3.707031 -2.726562 3.625 -2.8125 C 3.539062 -2.894531 3.441406 -2.941406 3.328125 -2.953125 L 1.8125 -2.953125 L 1.8125 -0.65625 C 1.8125 -0.5 1.863281 -0.363281 1.96875 -0.25 C 2.082031 -0.144531 2.21875 -0.09375 2.375 -0.09375 L 2.5 -0.09375 L 2.5 0 L 0.53125 0 L 0.53125 -0.09375 L 0.65625 -0.09375 C 0.8125 -0.09375 0.941406 -0.144531 1.046875 -0.25 C 1.160156 -0.363281 1.21875 -0.5 1.21875 -0.65625 L 1.21875 -5.65625 C 1.21875 -5.800781 1.160156 -5.921875 1.046875 -6.015625 C 0.929688 -6.117188 0.800781 -6.171875 0.65625 -6.171875 L 0.546875 -6.171875 L 0.53125 -6.25 L 3.15625 -6.25 C 3.34375 -6.25 3.539062 -6.265625 3.75 -6.296875 C 3.96875 -6.335938 4.125 -6.378906 4.21875 -6.421875 Z M 4.21875 -6.15625 "/></g></g></g><g fill="#c1272d" fill-opacity="1"><g transform="translate(113.215656, 8.759806)"><g><path d="M 0.609375 -0.09375 C 0.753906 -0.09375 0.875 -0.132812 0.96875 -0.21875 C 1.070312 -0.3125 1.128906 -0.425781 1.140625 -0.5625 L 1.140625 -4.796875 C 1.128906 -4.921875 1.070312 -5.03125 0.96875 -5.125 C 0.863281 -5.21875 0.738281 -5.265625 0.59375 -5.265625 L 0.484375 -5.265625 L 0.484375 -5.359375 L 2.34375 -5.359375 L 2.34375 -5.265625 L 2.234375 -5.265625 C 2.085938 -5.265625 1.960938 -5.21875 1.859375 -5.125 C 1.753906 -5.03125 1.703125 -4.921875 1.703125 -4.796875 L 1.703125 -0.28125 L 3.09375 -0.28125 C 3.375 -0.28125 3.609375 -0.328125 3.796875 -0.421875 C 3.984375 -0.515625 4.125 -0.625 4.21875 -0.75 C 4.320312 -0.882812 4.421875 -1.0625 4.515625 -1.28125 L 4.609375 -1.28125 L 4.125 0 L 0.484375 0 L 0.484375 -0.09375 Z M 0.609375 -0.09375 "/></g></g></g><g fill="#c1272d" fill-opacity="1"><g transform="translate(118.632059, 8.759806)"><g><path d="M 0.609375 -0.09375 C 0.773438 -0.09375 0.914062 -0.140625 1.03125 -0.234375 C 1.15625 -0.328125 1.21875 -0.441406 1.21875 -0.578125 L 1.21875 -4.796875 C 1.21875 -4.921875 1.15625 -5.03125 1.03125 -5.125 C 0.914062 -5.21875 0.773438 -5.265625 0.609375 -5.265625 L 0.484375 -5.265625 L 0.484375 -5.359375 L 2.515625 -5.359375 L 2.515625 -5.265625 L 2.390625 -5.265625 C 2.234375 -5.265625 2.097656 -5.21875 1.984375 -5.125 C 1.867188 -5.039062 1.800781 -4.9375 1.78125 -4.8125 L 1.78125 -0.5625 C 1.789062 -0.425781 1.851562 -0.3125 1.96875 -0.21875 C 2.09375 -0.132812 2.234375 -0.09375 2.390625 -0.09375 L 2.515625 -0.09375 L 2.515625 0 L 0.484375 0 L 0.484375 -0.09375 Z M 0.609375 -0.09375 "/></g></g></g><g fill="#c1272d" fill-opacity="1"><g transform="translate(122.260865, 8.759806)"><g><path d="M 3.375 0.125 C 2.488281 0.113281 1.78125 -0.140625 1.25 -0.640625 C 0.71875 -1.140625 0.453125 -1.820312 0.453125 -2.6875 C 0.453125 -3.550781 0.71875 -4.234375 1.25 -4.734375 C 1.78125 -5.234375 2.46875 -5.484375 3.3125 -5.484375 C 4.15625 -5.484375 4.867188 -5.304688 5.453125 -4.953125 L 5.65625 -3.6875 L 5.578125 -3.6875 C 5.453125 -4.207031 5.207031 -4.59375 4.84375 -4.84375 C 4.488281 -5.09375 3.976562 -5.21875 3.3125 -5.21875 C 2.65625 -5.21875 2.117188 -4.988281 1.703125 -4.53125 C 1.296875 -4.082031 1.09375 -3.46875 1.09375 -2.6875 C 1.09375 -1.90625 1.300781 -1.285156 1.71875 -0.828125 C 2.132812 -0.367188 2.707031 -0.140625 3.4375 -0.140625 C 4.175781 -0.140625 4.8125 -0.398438 5.34375 -0.921875 L 5.359375 -2.109375 C 5.359375 -2.210938 5.320312 -2.296875 5.25 -2.359375 C 5.175781 -2.421875 5.070312 -2.453125 4.9375 -2.453125 L 4.8125 -2.453125 L 4.8125 -2.546875 L 6.453125 -2.546875 L 6.453125 -2.453125 L 6.328125 -2.453125 C 6.054688 -2.453125 5.921875 -2.332031 5.921875 -2.09375 L 5.921875 -1.03125 C 5.671875 -0.71875 5.328125 -0.445312 4.890625 -0.21875 C 4.453125 0.0078125 3.945312 0.125 3.375 0.125 Z M 3.375 0.125 "/></g></g></g><g fill="#c1272d" fill-opacity="1"><g transform="translate(129.518487, 8.759806)"><g><path d="M 4.46875 -0.09375 C 4.601562 -0.09375 4.722656 -0.132812 4.828125 -0.21875 C 4.929688 -0.3125 4.984375 -0.425781 4.984375 -0.5625 L 4.984375 -2.515625 L 1.6875 -2.515625 L 1.6875 -0.5625 C 1.695312 -0.425781 1.75 -0.3125 1.84375 -0.21875 C 1.945312 -0.132812 2.066406 -0.09375 2.203125 -0.09375 L 2.3125 -0.09375 L 2.3125 0 L 0.484375 0 L 0.484375 -0.09375 L 0.59375 -0.09375 C 0.738281 -0.09375 0.859375 -0.140625 0.953125 -0.234375 C 1.054688 -0.328125 1.113281 -0.441406 1.125 -0.578125 L 1.125 -4.796875 C 1.113281 -4.921875 1.054688 -5.03125 0.953125 -5.125 C 0.847656 -5.21875 0.726562 -5.265625 0.59375 -5.265625 L 0.484375 -5.265625 L 0.484375 -5.359375 L 2.3125 -5.359375 L 2.3125 -5.265625 L 2.203125 -5.265625 C 2.066406 -5.265625 1.945312 -5.21875 1.84375 -5.125 C 1.75 -5.039062 1.695312 -4.929688 1.6875 -4.796875 L 1.6875 -2.78125 L 4.984375 -2.78125 L 4.984375 -4.796875 C 4.984375 -4.921875 4.945312 -5.019531 4.875 -5.09375 C 4.75 -5.207031 4.613281 -5.265625 4.46875 -5.265625 L 4.359375 -5.265625 L 4.359375 -5.359375 L 6.1875 -5.359375 L 6.1875 -5.265625 L 6.078125 -5.265625 C 5.941406 -5.265625 5.820312 -5.21875 5.71875 -5.125 C 5.613281 -5.039062 5.5625 -4.9375 5.5625 -4.8125 L 5.5625 -0.5625 C 5.5625 -0.425781 5.597656 -0.328125 5.671875 -0.265625 C 5.804688 -0.148438 5.941406 -0.09375 6.078125 -0.09375 L 6.1875 -0.09375 L 6.1875 0 L 4.359375 0 L 4.359375 -0.09375 Z M 4.46875 -0.09375 "/></g></g></g><g fill="#c1272d" fill-opacity="1"><g transform="translate(136.811852, 8.759806)"><g><path d="M 2.875 -5.109375 L 2.875 -0.5625 C 2.882812 -0.375 2.972656 -0.238281 3.140625 -0.15625 C 3.222656 -0.113281 3.3125 -0.09375 3.40625 -0.09375 L 3.5 -0.09375 L 3.5 0 L 1.65625 0 L 1.65625 -0.09375 L 1.765625 -0.09375 C 1.910156 -0.09375 2.03125 -0.140625 2.125 -0.234375 C 2.226562 -0.328125 2.285156 -0.441406 2.296875 -0.578125 L 2.296875 -5.109375 L 0.671875 -5.109375 C 0.535156 -5.109375 0.425781 -5.0625 0.34375 -4.96875 C 0.269531 -4.875 0.234375 -4.765625 0.234375 -4.640625 L 0.234375 -4.5 L 0.140625 -4.5 L 0.140625 -5.515625 C 0.253906 -5.460938 0.421875 -5.425781 0.640625 -5.40625 C 0.859375 -5.382812 1.019531 -5.375 1.125 -5.375 L 4.046875 -5.375 C 4.472656 -5.375 4.804688 -5.421875 5.046875 -5.515625 L 5.046875 -4.5 L 4.9375 -4.5 L 4.9375 -4.640625 C 4.9375 -4.765625 4.894531 -4.875 4.8125 -4.96875 C 4.726562 -5.0625 4.625 -5.109375 4.5 -5.109375 Z M 2.875 -5.109375 "/></g></g></g></g></g></svg>